# AST/ASF file generated using VICON BodyLanguage
# -----------------------------------------------
:version 1.10
:name VICON
:units
  mass 1.0
  length 0.45
  angle deg
:documentation
   .ast/.asf automatically generated from VICON data using
   VICON BodyBuilder and BodyLanguage model FoxedUp or BRILLIANT.MOD
:root
   order TX TY TZ RX RY RZ
   axis XYZ
   position 0 0 0  
   orientation 0 0 0 
:bonedata
  begin
     id 1 
     name lhipjoint
     direction 0.578396 -0.714046 0.394458 
     length 2.21935 
     axis 0 0 0  XYZ
  end
  begin
     id 2 
     name lfemur
     direction 0.34202 -0.939693 0  
     length 6.39105  
     axis 0 0 20  XYZ
    dof rx ry rz
    limits (-160.0 20.0)
           (-70.0 70.0)
           (-60.0 70.0)
  end
  begin
     id 3 
     name ltibia
     direction 0.34202 -0.939693 0   
     length 6.99037   
     axis 0 0 20   XYZ
    dof rx
    limits (-10.0 170.0)
  end
  begin
     id 4 
     name lfoot
     direction 0.0582372 -0.160005 0.985397   
     length 2.06111   
     axis -90 7.62852e-016 20   XYZ
    dof rx rz
    limits (-45.0 90.0)
           (-70.0 20.0)
  end
  begin
     id 5 
     name ltoes
     direction 1.53556e-011 -4.21875e-011 1   
     length 1.04074   
     axis -90 7.62852e-016 20   XYZ
    dof rx
    limits (-90.0 20.0)
  end
  begin
     id 6 
     name rhipjoint
     direction -0.558179 -0.726269 0.40121   
     length 2.182  
     axis 0 0 0  XYZ 
  end
  begin
     id 7 
     name rfemur
     direction -0.34202 -0.939693 0   
     length 6.51172   
     axis 0 0 -20   XYZ
    dof rx ry rz
    limits (-160.0 20.0)
           (-70.0 70.0)
           (-70.0 60.0)
  end
  begin
     id 8 
     name rtibia
     direction -0.34202 -0.939693 0   
     length 7.02607   
     axis 0 0 -20   XYZ
    dof rx
    limits (-10.0 170.0)
 end
 begin
     id 9 
     name rfoot
     direction -0.0788856 -0.216737 0.973038   
     length 1.96734  
     axis -90 -7.62852e-016 -20   XYZ
    dof rx rz
    limits (-45.0 90.0)
           (-20.0 70.0)
  end
  begin
     id 10 
     name rtoes
     direction -1.53567e-011 -4.21783e-011 1   
     length 0.990825   
     axis -90 -7.62852e-016 -20   XYZ
    dof rx
    limits (-90.0 20.0)
  end
  begin
     id 11 
     name lowerback
     direction 0.00668177 0.999323 -0.0361741   
     length 1.7655   
     axis 0 0 0   XYZ
    dof rx ry rz
    limits (-20.0 45.0)
           (-30.0 30.0)
           (-30.0 30.0)
  end
  begin
     id 12 
     name upperback
     direction -0.00222086 0.99851 0.0545167   
     length 1.74912   
     axis 0 0 0   XYZ
    dof rx ry rz
    limits (-20.0 45.0)
           (-30.0 30.0)
           (-30.0 30.0)
  end
  begin
     id 13 
     name thorax
     direction -0.00733971 0.997496 0.0703443   
     length 1.75715   
     axis 0 0 0   XYZ
    dof rx ry rz
    limits (-20.0 45.0)
           (-30.0 30.0)
           (-30.0 30.0)
  end
  begin
     id 14 
     name lowerneck
     direction 0.0279797 0.994795 0.0979765   
     length 1.46939   
     axis 0 0 0   XYZ
    dof rx ry rz
    limits (-20.0 45.0)
           (-30.0 30.0)
           (-30.0 30.0)
  end
  begin
     id 15 
     name upperneck
     direction 0.00339187 0.976776 -0.214238   
     length 1.48018   
     axis 0 0 0   XYZ
    dof rx ry rz
    limits (-20.0 45.0)
           (-30.0 30.0)
           (-30.0 30.0)
  end
  begin
     id 16
     name head
     direction -0.00263506 0.996603 -0.0823096  
     length 1.4976  
     axis 0 0 0   XYZ
    dof rx ry rz
    limits (-20.0 45.0)
           (-30.0 30.0)
           (-30.0 30.0)
  end
  begin
     id 17 
     name lclavicle
     direction 0.894044 0.44508 -0.0508781  
     length 3.03024  
     axis 0 0 0   XYZ
    dof ry rz
    limits (-20.0 10.0)
           (0.0 20.0)
  end
  begin
     id 18 
     name lhumerus
     direction 1 -4.48961e-011 -2.39475e-018   
     length 4.4661   
     axis 180 -30 -90   XYZ
    dof rx ry rz
    limits (-60.0 90.0)
           (-90.0 90.0)
           (-90.0 90.0)
  end
  begin
     id 19
     name lradius
     direction 1 -4.48961e-011 9.29328e-028   
     length 3.41414   
     axis 180 -30 -90   XYZ
    dof rx
    limits (-10.0 170.0)
  end
  begin
     id 20
     name lwrist
     direction 1 -4.48985e-011 1.53461e-026   
     length 1.70707   
     axis -1.09697e-014 90 90   XYZ
    dof ry
    limits (-180.0 0.0)
 end
  begin
     id 21 
     name lhand
     direction 1 -4.48966e-011 3.06923e-026   
     length 0.328298   
     axis -1.95843e-014 90 90   XYZ
    dof rx rz
    limits (-90.0 90.0)
           (-45.0 45.0)
  end
  begin
     id 22 
     name lfingers
     direction 1 -4.48893e-011 6.13845e-026   
     length 0.264682   
     axis -3.91686e-014 90 90   XYZ
    dof rx
    limits (0.0 90.0)
  end
  begin
     id 23
     name lthumb
     direction 0.707107 -6.34876e-011 0.707107   
     length 0.380032   
     axis -90 45 2.85299e-015   XYZ
    dof rx rz
    limits (-45.0 45.0)
           (-45.0 45.0)
  end
  begin
     id 24 
     name rclavicle
     direction -0.936955 0.347862 -0.0332887   
     length 3.26927  
     axis 0 0 0   XYZ 
    dof ry rz
    limits (-10.0 20.0)
           (-20.0 0.0)
  end
  begin
     id 25 
     name rhumerus
     direction -1 -4.4896e-011 1.78637e-018  
     length 4.40431   
     axis 180 30 90   XYZ
    dof rx ry rz
    limits (-90.0 60.0)
           (-90.0 90.0)
           (-90.0 90.0)
  end
  begin
     id 26 
     name rradius
     direction -1 -4.48955e-011 9.34036e-027   
     length 3.04688   
     axis 180 30 90   XYZ
    dof rx
    limits (-10.0 170.0)
  end
  begin
     id 27 
     name rwrist
     direction -1 -4.49011e-011 1.53461e-026   
     length 1.52344   
     axis -1.09697e-014 -90 -90   XYZ
    dof ry
    limits (-180.0 0.0)
  end
  begin
     id 28
     name rhand
     direction -1 -4.48834e-011 3.06923e-026   
     length 0.500489   
     axis -1.95843e-014 -90 -90   XYZ
    dof rx rz
    limits (-90.0 90.0)
           (-45.0 45.0)
  end
  begin
     id 29
     name rfingers
     direction -1 -4.48967e-011 6.13845e-026   
     length 0.403507   
     axis -3.91686e-014 -90 -90   XYZ
    dof rx
    limits (0.0 90.0)
  end
  begin
     id 30
     name rthumb
     direction -0.707107 -6.34826e-011 0.707107   
     length 0.579358   
     axis -90 -45 -2.85299e-015   XYZ
    dof rx rz
    limits (-45.0 45.0)
           (-45.0 45.0)
  end
:hierarchy
  begin
    root lhipjoint rhipjoint lowerback
    lhipjoint lfemur
    lfemur ltibia
    ltibia lfoot
    lfoot ltoes
    rhipjoint rfemur
    rfemur rtibia
    rtibia rfoot
    rfoot rtoes
    lowerback upperback
    upperback thorax
    thorax lowerneck lclavicle rclavicle
    lowerneck upperneck
    upperneck head
    lclavicle lhumerus
    lhumerus lradius
    lradius lwrist
    lwrist lhand lthumb
    lhand lfingers
    rclavicle rhumerus
    rhumerus rradius
    rradius rwrist
    rwrist rhand rthumb
    rhand rfingers
  end

#!OML:ASF H:\IndianDance\Patient Classification 1\Patient 1\Session 1\dancer.ASF
:FULLY-SPECIFIED
:DEGREES
562
root 7.85789 15.1198 1.44543 532.183 -66.6835 -167.938
lowerback 4.98245 -1.19849 -0.14173
upperback -5.73349 -1.65428 1.09124
thorax -8.80293 -0.805954 1.44728
lowerneck -10.1192 -12.785 -8.21788
upperneck 19.5712 -17.749 4.70422
head 8.94122 -8.70088 0.808456
rclavicle 3.63279e-014 3.97569e-015
rhumerus 9.68753 37.2811 -26.2079
rradius 32.7744
rwrist -10.1843
rhand -8.55795 9.34516
rfingers 7.12502
rthumb 17.3719 -19.8985
lclavicle 3.63279e-014 3.97569e-015
lhumerus 16.2985 -53.9525 -4.21202
lradius 124.717
lwrist 24.4856
lhand 1.78312 9.75132
lfingers 7.12502
lthumb 27.2972 -322.205
rfemur -40.2143 -17.8663 21.1399
rtibia 62.4619
rfoot -1.02222 10.7396
rtoes -18.6696
lfemur -25.2251 20.9488 -21.3359
ltibia 54.0949
lfoot -15.5143 -1.17153
ltoes 1.91831
563
root 7.85582 15.0849 1.33725 531.486 -66.6239 -167.437
lowerback 5.16117 -1.20387 -0.148596
upperback -5.71059 -1.64889 1.23806
thorax -8.87947 -0.796034 1.61065
lowerneck -10.0599 -12.7455 -8.15632
upperneck 19.5519 -17.6864 4.608
head 8.90427 -8.67939 0.783679
rclavicle -2.27111e-014 6.36111e-015
rhumerus 9.912 36.3926 -26.3591
rradius 31.8561
rwrist -9.46547
rhand -8.19702 9.40577
rfingers 7.12502
rthumb 17.7193 -19.8069
lclavicle -2.27111e-014 6.36111e-015
lhumerus 16.5945 -54.113 -4.49809
lradius 124.54
lwrist 24.389
lhand 2.10303 9.41011
lfingers 7.12502
lthumb 27.6031 -322.594
rfemur -40.1437 -17.6884 20.6092
rtibia 62.7127
rfoot -2.09969 8.80289
rtoes -18.3896
lfemur -24.5749 19.959 -20.7208
ltibia 53.9112
lfoot -16.4227 0.423697
ltoes 0.751102
564
root 7.85619 15.0553 1.22596 530.863 -66.5648 -167.091
lowerback 5.45749 -1.19579 -0.238216
upperback -5.68795 -1.63412 1.34827
thorax -9.02513 -0.776028 1.78431
lowerneck -10.0151 -12.7099 -8.09806
upperneck 19.5859 -17.6359 4.5155
head 8.88982 -8.66302 0.755812
rclavicle -3.88127e-014 1.74931e-014
rhumerus 10.0187 35.3958 -26.6683
rradius 30.975
rwrist -8.71981
rhand -7.85279 9.47681
rfingers 7.12502
rthumb 18.0505 -19.7056
lclavicle -3.88127e-014 1.74931e-014
lhumerus 16.8939 -54.3172 -4.77571
lradius 124.369
lwrist 24.3483
lhand 2.36358 9.13326
lfingers 7.12502
lthumb 27.8523 -322.911
rfemur -39.7725 -17.2841 19.8986
rtibia 62.5667
rfoot -3.31788 6.16954
rtoes -17.4935
lfemur -23.8233 19.2275 -20.0676
ltibia 53.6821
lfoot -17.2245 1.68
ltoes -0.209457
565
root 7.85871 15.032 1.11086 530.362 -66.5132 -166.921
lowerback 5.83422 -1.17476 -0.415157
upperback -5.66952 -1.613 1.41806
thorax -9.22251 -0.747332 1.96612
lowerneck -10.0002 -12.6769 -8.0412
upperneck 19.6766 -17.5928 4.42043
head 8.90064 -8.64946 0.722061
rclavicle 1.04362e-014 -5.56597e-015
rhumerus 10.0127 34.2967 -27.1219
rradius 30.1272
rwrist -7.89321
rhand -7.55273 9.58231
rfingers 7.12502
rthumb 18.3392 -19.5732
lclavicle 1.04362e-014 -5.56597e-015
lhumerus 17.1587 -54.5564 -5.00749
lradius 124.202
lwrist 24.3104
lhand 2.54332 8.89424
lfingers 7.12502
lthumb 28.0241 -323.178
rfemur -39.1324 -16.6343 19.0225
rtibia 62.0274
rfoot -4.46311 3.11494
rtoes -15.9911
lfemur -23.0278 18.7664 -19.4245
ltibia 53.4403
lfoot -17.8679 2.63583
ltoes -1.20359
566
root 7.86267 15.0148 0.991335 530.003 -66.4875 -166.909
lowerback 6.22233 -1.14364 -0.664041
upperback -5.65461 -1.5901 1.44623
thorax -9.43055 -0.713723 2.14444
lowerneck -10.0122 -12.6488 -7.99275
upperneck 19.8046 -17.5584 4.3316
head 8.93117 -8.63895 0.686869
rclavicle -3.36443e-014 -1.86858e-014
rhumerus 9.89649 33.0952 -27.6979
rradius 29.3178
rwrist -7.00025
rhand -7.28292 9.72702
rfingers 7.12502
rthumb 18.5987 -19.4039
lclavicle -3.36443e-014 -1.86858e-014
lhumerus 17.3738 -54.8112 -5.17732
lradius 124.043
lwrist 24.2447
lhand 2.64366 8.64099
lfingers 7.12502
lthumb 28.12 -323.447
rfemur -38.2748 -15.7471 18.0185
rtibia 61.1251
rfoot -5.40557 -0.0192307
rtoes -14.0064
lfemur -22.2604 18.5496 -18.8196
ltibia 53.2251
lfoot -18.3462 3.38007
ltoes -2.22949
567
root 7.8675 15.0022 0.86698 529.804 -66.5084 -167.023
lowerback 6.56299 -1.10944 -0.978305
upperback -5.65101 -1.5755 1.44047
thorax -9.62255 -0.680855 2.3234
lowerneck -10.0514 -12.627 -7.95032
upperneck 19.9502 -17.5324 4.24948
head 8.97453 -8.63098 0.650817
rclavicle -2.78795e-014 5.56597e-015
rhumerus 9.68556 31.8134 -28.3607
rradius 28.5538
rwrist -6.1017
rhand -7.03652 9.86114
rfingers 7.12502
rthumb 18.8357 -19.2469
lclavicle -2.78795e-014 5.56597e-015
lhumerus 17.5114 -55.076 -5.26092
lradius 123.907
lwrist 24.1281
lhand 2.6361 8.41555
lfingers 7.12502
lthumb 28.1128 -323.672
rfemur -37.2719 -14.6552 16.9368
rtibia 59.9139
rfoot -6.09601 -2.85208
rtoes -11.8497
lfemur -21.6078 18.535 -18.2701
ltibia 53.0822
lfoot -18.6961 3.92995
ltoes -3.03434
568
root 7.87224 14.9923 0.737675 529.767 -66.5975 -167.22
lowerback 6.79978 -1.08277 -1.34609
upperback -5.66926 -1.58228 1.41207
thorax -9.77575 -0.656164 2.50885
lowerneck -10.0979 -12.6089 -7.92793
upperneck 20.0918 -17.5096 4.18402
head 9.02172 -8.62393 0.621808
rclavicle -4.05521e-014 8.74653e-015
rhumerus 9.39115 30.495 -29.0677
rradius 27.8465
rwrist -5.28531
rhand -6.80594 9.9819
rfingers 7.12502
rthumb 19.0575 -19.1044
lclavicle -4.05521e-014 8.74653e-015
lhumerus 17.5416 -55.3453 -5.23276
lradius 123.803
lwrist 23.971
lhand 2.55002 8.23496
lfingers 7.12502
lthumb 28.0305 -323.839
rfemur -36.1935 -13.4191 15.8317
rtibia 58.4646
rfoot -6.5134 -5.12016
rtoes -10.0213
lfemur -21.1372 18.6611 -17.7841
ltibia 53.0524
lfoot -18.9288 4.36032
ltoes -3.81078
569
root 7.87644 14.9834 0.603598 529.819 -66.7671 -167.393
lowerback 6.8905 -1.07368 -1.72392
upperback -5.70906 -1.6174 1.37129
thorax -9.86458 -0.646437 2.68706
lowerneck -10.1496 -12.5967 -7.92685
upperneck 20.2126 -17.4959 4.15358
head 9.06875 -8.61884 0.605826
rclavicle 6.26172e-015 1.23246e-014
rhumerus 9.0306 29.155 -29.7964
rradius 27.1947
rwrist -4.62548
rhand -6.57334 10.0366
rfingers 7.12502
rthumb 19.2811 -19.0276
lclavicle 6.26172e-015 1.23246e-014
lhumerus 17.4701 -55.6028 -5.10649
lradius 123.734
lwrist 23.7974
lhand 2.44705 8.06419
lfingers 7.12502
lthumb 27.9321 -323.993
rfemur -35.0973 -12.1192 14.7893
rtibia 56.8602
rfoot -6.70458 -6.69915
rtoes -9.03263
lfemur -20.9011 18.8665 -17.3292
ltibia 53.1785
lfoot -19.0609 4.69442
ltoes -4.58657
570
root 7.87998 14.9735 0.465263 529.914 -67.033 -167.478
lowerback 6.80953 -1.09082 -2.07703
upperback -5.76496 -1.68639 1.3177
thorax -9.86749 -0.657657 2.83761
lowerneck -10.205 -12.5951 -7.94768
upperneck 20.3023 -17.5003 4.17446
head 9.11412 -8.61844 0.607333
rclavicle -2.22639e-014 7.55382e-015
rhumerus 8.61508 27.7716 -30.5434
rradius 26.5808
rwrist -4.13785
rhand -6.33249 10.0309
rfingers 7.12502
rthumb 19.5127 -19.01
lclavicle -2.22639e-014 7.55382e-015
lhumerus 17.3383 -55.8212 -4.93672
lradius 123.706
lwrist 23.6368
lhand 2.34863 7.91637
lfingers 7.12502
lthumb 27.838 -324.126
rfemur -34.025 -10.8583 13.8728
rtibia 55.1923
rfoot -6.78324 -7.5039
rtoes -9.11852
lfemur -20.9305 19.0919 -16.8884
ltibia 53.4926
lfoot -19.1168 4.93442
ltoes -5.35815
571
root 7.88308 14.9616 0.32349 529.939 -67.3951 -167.365
lowerback 6.57956 -1.1417 -2.36902
upperback -5.83775 -1.7925 1.26551
thorax -9.79861 -0.693535 2.95595
lowerneck -10.2547 -12.6019 -7.98697
upperneck 20.3594 -17.5217 4.24809
head 9.15531 -8.62233 0.627211
rclavicle -3.40419e-014 -4.77083e-015
rhumerus 8.16343 26.4041 -31.2684
rradius 26.0172
rwrist -3.86202
rhand -6.08336 9.94196
rfingers 7.12502
rthumb 19.7522 -19.0745
lclavicle -3.40419e-014 -4.77083e-015
lhumerus 17.1616 -56.0007 -4.74703
lradius 123.72
lwrist 23.5202
lhand 2.28714 7.80411
lfingers 7.12502
lthumb 27.7792 -324.229
rfemur -32.9949 -9.72907 13.1623
rtibia 53.5513
rfoot -6.89812 -7.68593
rtoes -10.2359
lfemur -21.2269 19.3037 -16.416
ltibia 54.0191
lfoot -19.1051 5.10103
ltoes -6.23837
